<mxfile host="Electron" modified="2024-07-02T17:46:23.191Z" agent="Mozilla/5.0 (Macintosh; Intel Mac OS X 10_15_7) AppleWebKit/537.36 (KHTML, like Gecko) draw.io/24.5.3 Chrome/124.0.6367.207 Electron/30.0.6 Safari/537.36" etag="-WZ0UxF5BPBa9q0YRbGO" version="24.5.3" type="device">
  <diagram name="ページ1" id="Ibv-puV9xYZlcXQHHp5e">
    <mxGraphModel dx="1026" dy="743" grid="1" gridSize="10" guides="1" tooltips="1" connect="1" arrows="1" fold="1" page="1" pageScale="1" pageWidth="827" pageHeight="1169" math="0" shadow="0">
      <root>
        <mxCell id="0" />
        <mxCell id="1" parent="0" />
        <mxCell id="4qd2xAgCJvRchsyQi8B0-1" value="Eventbridge" style="sketch=0;points=[[0,0,0],[0.25,0,0],[0.5,0,0],[0.75,0,0],[1,0,0],[0,1,0],[0.25,1,0],[0.5,1,0],[0.75,1,0],[1,1,0],[0,0.25,0],[0,0.5,0],[0,0.75,0],[1,0.25,0],[1,0.5,0],[1,0.75,0]];outlineConnect=0;fontColor=#232F3E;fillColor=#E7157B;strokeColor=#ffffff;dashed=0;verticalLabelPosition=bottom;verticalAlign=top;align=center;html=1;fontSize=12;fontStyle=0;aspect=fixed;shape=mxgraph.aws4.resourceIcon;resIcon=mxgraph.aws4.eventbridge;" vertex="1" parent="1">
          <mxGeometry x="150" y="190" width="60" height="60" as="geometry" />
        </mxCell>
        <mxCell id="4qd2xAgCJvRchsyQi8B0-9" style="edgeStyle=orthogonalEdgeStyle;rounded=0;orthogonalLoop=1;jettySize=auto;html=1;entryX=0;entryY=0.5;entryDx=0;entryDy=0;" edge="1" parent="1" source="4qd2xAgCJvRchsyQi8B0-2" target="4qd2xAgCJvRchsyQi8B0-8">
          <mxGeometry relative="1" as="geometry" />
        </mxCell>
        <mxCell id="4qd2xAgCJvRchsyQi8B0-21" value="通知" style="edgeLabel;html=1;align=center;verticalAlign=top;resizable=0;points=[];" vertex="1" connectable="0" parent="4qd2xAgCJvRchsyQi8B0-9">
          <mxGeometry x="0.0947" relative="1" as="geometry">
            <mxPoint as="offset" />
          </mxGeometry>
        </mxCell>
        <mxCell id="4qd2xAgCJvRchsyQi8B0-17" style="edgeStyle=orthogonalEdgeStyle;rounded=0;orthogonalLoop=1;jettySize=auto;html=1;" edge="1" parent="1" source="4qd2xAgCJvRchsyQi8B0-2" target="4qd2xAgCJvRchsyQi8B0-3">
          <mxGeometry relative="1" as="geometry" />
        </mxCell>
        <mxCell id="4qd2xAgCJvRchsyQi8B0-20" style="edgeStyle=orthogonalEdgeStyle;rounded=0;orthogonalLoop=1;jettySize=auto;html=1;" edge="1" parent="1" source="4qd2xAgCJvRchsyQi8B0-2" target="4qd2xAgCJvRchsyQi8B0-11">
          <mxGeometry relative="1" as="geometry">
            <Array as="points">
              <mxPoint x="350" y="310" />
            </Array>
          </mxGeometry>
        </mxCell>
        <mxCell id="4qd2xAgCJvRchsyQi8B0-2" value="Lambda" style="sketch=0;points=[[0,0,0],[0.25,0,0],[0.5,0,0],[0.75,0,0],[1,0,0],[0,1,0],[0.25,1,0],[0.5,1,0],[0.75,1,0],[1,1,0],[0,0.25,0],[0,0.5,0],[0,0.75,0],[1,0.25,0],[1,0.5,0],[1,0.75,0]];outlineConnect=0;fontColor=#232F3E;fillColor=#ED7100;strokeColor=#ffffff;dashed=0;verticalLabelPosition=bottom;verticalAlign=top;align=center;html=1;fontSize=12;fontStyle=0;aspect=fixed;shape=mxgraph.aws4.resourceIcon;resIcon=mxgraph.aws4.lambda;labelBackgroundColor=default;" vertex="1" parent="1">
          <mxGeometry x="310" y="190" width="60" height="60" as="geometry" />
        </mxCell>
        <mxCell id="4qd2xAgCJvRchsyQi8B0-3" value="Cost Explorer" style="sketch=0;points=[[0,0,0],[0.25,0,0],[0.5,0,0],[0.75,0,0],[1,0,0],[0,1,0],[0.25,1,0],[0.5,1,0],[0.75,1,0],[1,1,0],[0,0.25,0],[0,0.5,0],[0,0.75,0],[1,0.25,0],[1,0.5,0],[1,0.75,0]];outlineConnect=0;fontColor=#232F3E;fillColor=#7AA116;strokeColor=#ffffff;dashed=0;verticalLabelPosition=bottom;verticalAlign=top;align=center;html=1;fontSize=12;fontStyle=0;aspect=fixed;shape=mxgraph.aws4.resourceIcon;resIcon=mxgraph.aws4.cost_explorer;" vertex="1" parent="1">
          <mxGeometry x="310" y="370" width="60" height="60" as="geometry" />
        </mxCell>
        <mxCell id="4qd2xAgCJvRchsyQi8B0-4" value="起動" style="edgeStyle=orthogonalEdgeStyle;rounded=0;orthogonalLoop=1;jettySize=auto;html=1;entryX=0;entryY=0.5;entryDx=0;entryDy=0;entryPerimeter=0;verticalAlign=top;" edge="1" parent="1" source="4qd2xAgCJvRchsyQi8B0-1" target="4qd2xAgCJvRchsyQi8B0-2">
          <mxGeometry relative="1" as="geometry" />
        </mxCell>
        <mxCell id="4qd2xAgCJvRchsyQi8B0-8" value="Slack" style="shape=image;editableCssRules=.*;image=data:image/svg+xml,PHN2ZyB2aWV3Qm94PSIwIDAgMjQgMjQiIHhtbG5zPSJodHRwOi8vd3d3LnczLm9yZy8yMDAwL3N2ZyI+PHN0eWxlPip7ZmlsbDojNEExNTRCfTwvc3R5bGU+PHBhdGggZD0iTTUuMDQyIDE1LjE2NWEyLjUyOCAyLjUyOCAwIDAgMS0yLjUyIDIuNTIzQTIuNTI4IDIuNTI4IDAgMCAxIDAgMTUuMTY1YTIuNTI3IDIuNTI3IDAgMCAxIDIuNTIyLTIuNTJoMi41MnYyLjUyek02LjMxMyAxNS4xNjVhMi41MjcgMi41MjcgMCAwIDEgMi41MjEtMi41MiAyLjUyNyAyLjUyNyAwIDAgMSAyLjUyMSAyLjUydjYuMzEzQTIuNTI4IDIuNTI4IDAgMCAxIDguODM0IDI0YTIuNTI4IDIuNTI4IDAgMCAxLTIuNTIxLTIuNTIydi02LjMxM3pNOC44MzQgNS4wNDJhMi41MjggMi41MjggMCAwIDEtMi41MjEtMi41MkEyLjUyOCAyLjUyOCAwIDAgMSA4LjgzNCAwYTIuNTI4IDIuNTI4IDAgMCAxIDIuNTIxIDIuNTIydjIuNTJIOC44MzR6TTguODM0IDYuMzEzYTIuNTI4IDIuNTI4IDAgMCAxIDIuNTIxIDIuNTIxIDIuNTI4IDIuNTI4IDAgMCAxLTIuNTIxIDIuNTIxSDIuNTIyQTIuNTI4IDIuNTI4IDAgMCAxIDAgOC44MzRhMi41MjggMi41MjggMCAwIDEgMi41MjItMi41MjFoNi4zMTJ6TTE4Ljk1NiA4LjgzNGEyLjUyOCAyLjUyOCAwIDAgMSAyLjUyMi0yLjUyMUEyLjUyOCAyLjUyOCAwIDAgMSAyNCA4LjgzNGEyLjUyOCAyLjUyOCAwIDAgMS0yLjUyMiAyLjUyMWgtMi41MjJWOC44MzR6TTE3LjY4OCA4LjgzNGEyLjUyOCAyLjUyOCAwIDAgMS0yLjUyMyAyLjUyMSAyLjUyNyAyLjUyNyAwIDAgMS0yLjUyLTIuNTIxVjIuNTIyQTIuNTI3IDIuNTI3IDAgMCAxIDE1LjE2NSAwYTIuNTI4IDIuNTI4IDAgMCAxIDIuNTIzIDIuNTIydjYuMzEyek0xNS4xNjUgMTguOTU2YTIuNTI4IDIuNTI4IDAgMCAxIDIuNTIzIDIuNTIyQTIuNTI4IDIuNTI4IDAgMCAxIDE1LjE2NSAyNGEyLjUyNyAyLjUyNyAwIDAgMS0yLjUyLTIuNTIydi0yLjUyMmgyLjUyek0xNS4xNjUgMTcuNjg4YTIuNTI3IDIuNTI3IDAgMCAxLTIuNTItMi41MjMgMi41MjYgMi41MjYgMCAwIDEgMi41Mi0yLjUyaDYuMzEzQTIuNTI3IDIuNTI3IDAgMCAxIDI0IDE1LjE2NWEyLjUyOCAyLjUyOCAwIDAgMS0yLjUyMiAyLjUyM2gtNi4zMTN6Ii8+PC9zdmc+;verticalAlign=top;labelPosition=center;verticalLabelPosition=bottom;align=center;html=1;" vertex="1" parent="1">
          <mxGeometry x="560" y="190" width="60" height="60" as="geometry" />
        </mxCell>
        <mxCell id="4qd2xAgCJvRchsyQi8B0-19" style="edgeStyle=orthogonalEdgeStyle;rounded=0;orthogonalLoop=1;jettySize=auto;html=1;" edge="1" parent="1" source="4qd2xAgCJvRchsyQi8B0-11" target="4qd2xAgCJvRchsyQi8B0-12">
          <mxGeometry relative="1" as="geometry" />
        </mxCell>
        <mxCell id="4qd2xAgCJvRchsyQi8B0-11" value="Internet" style="sketch=0;outlineConnect=0;fontColor=#232F3E;gradientColor=none;fillColor=#232F3D;strokeColor=none;dashed=0;verticalLabelPosition=bottom;verticalAlign=top;align=center;html=1;fontSize=12;fontStyle=0;aspect=fixed;pointerEvents=1;shape=mxgraph.aws4.internet;labelBackgroundColor=default;" vertex="1" parent="1">
          <mxGeometry x="436.5" y="280" width="65" height="40" as="geometry" />
        </mxCell>
        <mxCell id="4qd2xAgCJvRchsyQi8B0-12" value="GMO Coin API" style="rounded=1;whiteSpace=wrap;html=1;" vertex="1" parent="1">
          <mxGeometry x="416" y="390" width="106" height="40" as="geometry" />
        </mxCell>
      </root>
    </mxGraphModel>
  </diagram>
</mxfile>
